<?xml version="1.0" ?><!DOCTYPE svg  PUBLIC '-//W3C//DTD SVG 1.1//EN'  'http://www.w3.org/Graphics/SVG/1.1/DTD/svg11.dtd'><svg height="512px" style="enable-background:new 0 0 512 512;" version="1.1" viewBox="0 0 512 512" width="512px" xml:space="preserve" xmlns="http://www.w3.org/2000/svg" xmlns:xlink="http://www.w3.org/1999/xlink"><g id="comp_x5F_240-OpenSource_x2C__open_source"><g><g><g id="_x35_7-open_source_8_"><g><g><g><path d="M256.001,42.714c-121.137,0-219.699,98.831-219.699,220.293         c0,90.625,56.652,173.152,140.936,205.342c3.516,1.401,7.47,1.182,10.876-0.471c3.405-1.676,5.987-4.652,7.112-8.285         l41.192-131.901c1.952-6.257-0.741-13.026-6.452-16.165c-17.822-9.857-28.889-28.447-28.889-48.52         c0-30.375,24.629-55.075,54.924-55.075c30.287,0,54.92,24.7,54.92,55.075c0,20.072-11.065,38.662-28.887,48.551         c-5.712,3.136-8.43,9.912-6.452,16.165l41.191,131.896c1.128,3.634,3.707,6.609,7.108,8.289         c1.896,0.908,3.959,1.379,5.993,1.379c1.643,0,3.317-0.302,4.891-0.91c84.3-32.215,140.933-114.744,140.933-205.366         C475.697,141.545,377.136,42.714,256.001,42.714L256.001,42.714z" style="fill:#3DA639;"/><path d="M329.875,479.286c-3.524,0-7.091-0.816-10.314-2.36c-0.035-0.018-0.071-0.035-0.106-0.053         c-5.851-2.889-10.309-8.098-12.231-14.29l-41.186-131.879c-3.396-10.735,1.304-22.488,11.185-27.912         c14.604-8.104,23.699-23.356,23.699-39.785c0-24.854-20.151-45.075-44.92-45.075c-24.771,0-44.924,20.221-44.924,45.075         c0,16.435,9.092,31.674,23.729,39.769c9.814,5.394,14.517,17.131,11.159,27.895l-41.193,131.904         c-1.914,6.179-6.378,11.391-12.242,14.276c-5.985,2.903-12.936,3.18-18.922,0.815         C85.498,443.984,26.302,357.729,26.302,263.007c0-126.984,103.042-230.293,229.699-230.293         c126.654,0,229.696,103.31,229.697,230.296c0,94.74-59.221,181.024-147.363,214.707         C335.655,478.754,332.797,479.286,329.875,479.286z M328.257,458.914c0.956,0.441,2.021,0.476,2.902,0.135         c80.486-30.758,134.539-109.534,134.539-196.039c-0.001-115.958-94.07-210.296-209.697-210.296         c-115.628,0-209.699,94.337-209.699,210.293c0,86.508,54.053,165.274,134.503,196c0.045,0.018,0.09,0.035,0.135,0.053         c0.841,0.335,1.892,0.266,2.808-0.179c0.917-0.451,1.619-1.258,1.925-2.246l41.199-131.925         c0.536-1.717-0.188-3.576-1.723-4.42c-21.025-11.629-34.072-33.574-34.072-57.283c0-35.883,29.125-65.075,64.924-65.075         c35.797,0,64.92,29.192,64.92,65.075c0,23.692-13.041,45.646-34.035,57.295c-1.578,0.866-2.306,2.71-1.77,4.405         l41.202,131.93C326.627,457.631,327.313,458.432,328.257,458.914z" style="fill:#2E7D2B;"/></g></g></g></g></g></g></g><g id="Layer_1"/></svg>